<?xml version="1.0" standalone="no"?>
<!DOCTYPE svg PUBLIC "-//W3C//DTD SVG 20010904//EN"
 "http://www.w3.org/TR/2001/REC-SVG-20010904/DTD/svg10.dtd">
<svg version="1.0" xmlns="http://www.w3.org/2000/svg"
 width="512.000000pt" height="512.000000pt" viewBox="0 0 512.000000 512.000000"
 preserveAspectRatio="xMidYMid meet">
<metadata>
Created by potrace 1.11, written by Peter Selinger 2001-2013
</metadata>
<g transform="translate(0.000000,512.000000) scale(0.100000,-0.100000)"
fill="#000000" stroke="none">
<path d="M4325 4795 c-102 -19 -421 -73 -470 -80 -19 -3 -179 -30 -235 -40
-14 -2 -65 -11 -115 -19 -49 -9 -182 -31 -295 -50 -113 -19 -221 -37 -240 -40
-19 -3 -46 -8 -60 -10 -14 -3 -108 -19 -211 -36 -102 -17 -194 -32 -206 -34
-21 -5 -67 -12 -130 -22 -115 -17 -163 -36 -199 -76 -50 -54 -48 -5 -49 -1118
-2 -922 -6 -1175 -20 -1270 -2 -14 -7 -54 -10 -90 -3 -36 -10 -81 -15 -100 -5
-19 -12 -51 -15 -70 -23 -136 -100 -290 -219 -437 -34 -43 -69 -89 -76 -103
-20 -35 -23 -631 -4 -687 26 -75 122 -126 221 -118 181 17 403 170 571 393
108 144 216 353 273 530 l22 68 191 -67 c105 -37 233 -82 284 -99 l92 -33 0
-301 c0 -166 4 -316 10 -335 21 -75 80 -129 160 -146 60 -13 524 -8 567 5 54
18 108 63 130 111 16 35 19 63 18 198 l0 158 115 -39 c166 -55 223 -54 317 9
41 27 59 48 83 96 17 34 32 72 35 85 2 12 7 27 10 32 4 6 33 88 65 183 46 137
57 182 55 222 -6 92 -60 177 -137 216 -34 18 -230 88 -535 192 -51 17 -93 35
-93 40 0 5 35 59 77 120 42 62 85 124 95 140 10 15 26 39 37 55 39 58 65 162
66 257 0 50 -4 108 -9 131 l-8 41 58 6 c102 11 136 28 163 81 24 46 24 51 25
334 1 293 -4 385 -27 430 -15 32 -59 58 -112 67 -22 3 -386 6 -808 6 -730 0
-769 1 -786 18 -10 10 -17 29 -16 42 1 13 3 30 4 36 3 34 27 39 506 119 17 2
55 9 85 14 30 5 69 12 85 14 17 3 45 8 63 11 17 3 44 7 60 10 35 5 78 13 120
20 17 3 47 7 65 10 38 7 130 22 172 30 17 3 116 19 220 36 220 36 261 48 310
97 54 54 65 120 40 242 -3 14 -8 45 -11 70 -6 45 -9 63 -19 110 -2 14 -7 39
-9 55 -23 145 -26 156 -48 195 -32 59 -111 101 -183 99 -16 -1 -61 -7 -100
-14z m-886 -2145 c30 0 33 -2 26 -22 -16 -51 -14 -216 4 -275 19 -62 61 -150
93 -195 22 -32 18 -33 -37 -14 -399 141 -428 148 -504 122 -24 -9 -46 -16 -50
-16 -4 0 -6 83 -6 184 0 137 4 187 13 199 16 19 78 23 287 20 77 -1 155 -2
174 -3z"/>
<path d="M1016 4783 c-1 -1 -37 -3 -81 -4 -135 -3 -179 -31 -191 -119 -4 -25
-7 -177 -8 -338 -1 -282 -2 -294 -21 -305 -12 -7 -84 -12 -185 -12 -91 -1
-181 -5 -200 -9 -48 -9 -81 -35 -105 -82 -18 -36 -20 -60 -19 -299 0 -288 5
-320 57 -359 46 -34 74 -39 252 -42 202 -4 187 -3 205 -14 13 -8 15 -59 16
-347 1 -186 -2 -347 -6 -359 -6 -15 -41 -33 -137 -68 -164 -61 -285 -121 -337
-167 l-41 -37 -3 -342 c-3 -334 -3 -343 19 -387 26 -53 69 -83 121 -83 21 0
98 24 178 55 78 30 149 55 159 55 38 0 49 -30 47 -121 -3 -135 -12 -143 -176
-154 -84 -6 -134 -27 -164 -68 -20 -27 -21 -41 -21 -365 0 -381 -1 -374 78
-408 38 -16 82 -18 434 -19 216 -1 418 2 449 6 126 17 220 90 257 200 27 78
30 148 30 722 1 628 -8 567 87 606 30 13 79 37 109 53 88 50 88 51 89 438 0
191 -4 347 -10 370 -15 59 -51 90 -104 90 -24 0 -64 -6 -90 -12 -43 -12 -47
-11 -64 10 -16 20 -19 41 -19 150 0 70 3 139 6 155 5 31 19 36 108 41 71 4
102 15 131 47 52 58 54 68 51 356 -2 300 -6 317 -73 362 -29 20 -49 25 -110
26 -118 2 -110 -21 -111 341 -1 315 -4 347 -41 388 -37 40 -92 48 -367 50
-108 0 -198 0 -199 -1z"/>
</g>
</svg>
