<svg xmlns="http://www.w3.org/2000/svg" width="35" height="35" viewBox="0 0 35 35">
    <path fill="#FFF" fill-rule="evenodd" d="M10.512.386L.596 9.32C.211 9.6 0 10.056 0 10.547v13.91c0 .42.175.84.525 1.156l9.915 8.935c.28.28.666.456 1.086.456H23.44c.386 0 .771-.141 1.052-.422l9.915-8.9c.35-.28.596-.735.596-1.226V10.547c0-.455-.175-.876-.525-1.157L24.562.455C24.282.175 23.896 0 23.44 0H11.527c-.35 0-.735.14-1.015.386zm5.43 17.483l-.77-6.972c-.141-1.226 1.12-2.347 2.311-2.347 1.191 0 2.488 1.12 2.348 2.347l-.771 6.972c-.105.876-.701 1.577-1.577 1.577-.84 0-1.437-.702-1.542-1.577h.002zm1.543 3.888c1.296 0 2.347 1.052 2.347 2.348 0 1.296-1.051 2.348-2.347 2.348-1.262 0-2.312-1.052-2.312-2.348 0-1.296 1.051-2.348 2.312-2.348z"/>
</svg>
