<svg xmlns="http://www.w3.org/2000/svg" xmlns:xlink="http://www.w3.org/1999/xlink" width="34" height="43" viewBox="0 0 34 43">
    <defs>
        <path id="a" d="M0 .219h33.932V43H0z"/>
    </defs>
    <g fill="none" fill-rule="evenodd">
        <g transform="translate(0 -.22)">
            <mask id="b" fill="#fff">
                <use xlink:href="#a"/>
            </mask>
            <path fill="#FEFEFE" d="M16.993 43c-.618 0-1.192-.274-1.536-.733L3.397 26.486C1.177 23.586 0 20.186 0 16.653 0 7.591 7.61.219 16.967.219c9.355 0 16.965 7.372 16.965 16.434 0 3.534-1.174 6.934-3.398 9.834L18.43 42.326l-.275.278-.06.043c-.31.231-.69.353-1.103.353" mask="url(#b)"/>
        </g>
        <path fill="#457287" d="M16.966 1C8.187 1 1 7.919 1 16.434c0 3.371 1.154 6.565 3.194 9.226l12.063 15.788c.265.354.886.444 1.241.178l.178-.178L29.74 25.66c2.04-2.661 3.194-5.855 3.194-9.226C32.934 7.919 25.748 1 16.967 1"/>
        <path fill="#FEFEFE" d="M26.134 16.551a9.168 9.168 0 1 1-18.335 0 9.168 9.168 0 0 1 18.335 0"/>
        <path fill="#457287" d="M23.987 16.551a7.021 7.021 0 1 1-14.042 0 7.021 7.021 0 0 1 14.042 0"/>
    </g>
</svg>
