<svg xmlns="http://www.w3.org/2000/svg" xmlns:xlink="http://www.w3.org/1999/xlink" width="34" height="43" viewBox="0 0 34 43">
    <defs>
        <path id="a" d="M0 .22h33.932V43H0z"/>
    </defs>
    <g fill="none" fill-rule="evenodd">
        <g transform="translate(0 -.22)">
            <mask id="b" fill="#fff">
                <use xlink:href="#a"/>
            </mask>
            <path fill="#FEFEFE" d="M16.993 43c-.618 0-1.192-.274-1.536-.733l-12.06-15.78C1.177 23.586 0 20.186 0 16.652 0 7.591 7.61.22 16.967.22c9.355 0 16.965 7.372 16.965 16.434 0 3.534-1.174 6.934-3.398 9.834L18.43 42.327l-.275.277-.06.043c-.31.231-.69.353-1.103.353" mask="url(#b)"/>
        </g>
        <path fill="#58585B" d="M16.966 1C8.187 1 1 7.918 1 16.434 1 19.805 2.155 23 4.195 25.66l12.063 15.788c.265.354.886.444 1.241.178l.178-.178L29.74 25.66c2.04-2.66 3.194-5.855 3.194-9.226C32.934 7.918 25.748 1 16.967 1"/>
        <path fill="#FEFEFE" d="M26.134 16.552a9.168 9.168 0 1 1-18.335 0 9.168 9.168 0 0 1 18.335 0"/>
        <path fill="#58585B" d="M23.987 16.552a7.022 7.022 0 1 1-14.044-.002 7.022 7.022 0 0 1 14.044.002"/>
    </g>
</svg>
