<svg xmlns="http://www.w3.org/2000/svg" width="34" height="43" viewBox="0 0 34 43">
    <g fill="none" fill-rule="evenodd">
        <path fill="#FEFEFE" d="M16.994 42.78c-.618 0-1.192-.273-1.536-.732L3.398 26.267c-2.221-2.9-3.397-6.3-3.397-9.833C0 7.372 7.61 0 16.968 0c9.355 0 16.965 7.372 16.965 16.434 0 3.534-1.174 6.934-3.398 9.834L18.432 42.107l-.275.278-.06.043c-.31.23-.69.353-1.103.353"/>
        <path fill="#A22A29" d="M15.724 22.466c-3.371-.71-5.588-3.903-4.878-7.273.71-3.37 3.903-5.588 7.274-4.878 2.482.532 4.435 2.395 4.877 4.878.621 3.372-1.596 6.653-4.877 7.273a5.442 5.442 0 0 1-2.396 0M16.966 1C8.185 1 1 7.92 1 16.434c0 3.371 1.153 6.564 3.194 9.225l12.062 15.788c.267.355.887.445 1.242.18l.179-.18L29.74 25.66c2.041-2.66 3.193-5.854 3.193-9.225C32.933 7.92 25.748 1 16.966 1"/>
    </g>
</svg>
