<svg xmlns="http://www.w3.org/2000/svg" width="32" height="41" viewBox="0 0 32 41">
    <path fill="#447287" fill-rule="evenodd" d="M15.966 0C7.185 0 0 6.919 0 15.434 0 18.805 1.153 22 3.193 24.66l12.063 15.788c.266.354.887.444 1.243.178l.178-.178L28.74 24.66c2.04-2.661 3.193-5.855 3.193-9.226C31.933 6.92 24.748 0 15.966 0zm-1.242 21.467c-3.371-.71-5.588-3.904-4.878-7.274s3.903-5.588 7.273-4.878c2.483.533 4.436 2.395 4.878 4.878.62 3.372-1.597 6.653-4.878 7.274a5.439 5.439 0 0 1-2.395 0z"/>
</svg>
