<svg xmlns="http://www.w3.org/2000/svg" width="34" height="43" viewBox="0 0 34 43">
    <g fill="none" fill-rule="evenodd">
        <path fill="#FEFEFE" d="M16.993 42.78c-.618 0-1.192-.273-1.536-.732L3.398 26.267C1.176 23.367 0 19.967 0 16.434 0 7.372 7.611 0 16.967 0c9.355 0 16.965 7.372 16.965 16.434 0 3.534-1.174 6.934-3.398 9.834L18.431 42.107l-.275.278-.059.043c-.31.23-.69.353-1.104.353"/>
        <path fill="#BB4A37" d="M16.967 1C8.185 1 1 7.919 1 16.434c0 3.371 1.152 6.565 3.193 9.226l12.063 15.788c.266.354.886.444 1.242.178l.178-.178L29.74 25.66c2.04-2.661 3.193-5.855 3.193-9.226C32.933 7.919 25.748 1 16.967 1"/>
        <path fill="#FEFEFE" d="M23.324 10.193a8.932 8.932 0 0 0-6.358-2.633 8.934 8.934 0 0 0-6.358 2.633 8.933 8.933 0 0 0-2.634 6.358c0 2.402.936 4.66 2.634 6.358a8.93 8.93 0 0 0 6.358 2.634 8.93 8.93 0 0 0 6.358-2.634 8.933 8.933 0 0 0 2.634-6.358 8.935 8.935 0 0 0-2.634-6.358zm-1.437 1.35L11.96 21.47a6.97 6.97 0 0 1-2.014-4.919c0-1.876.731-3.638 2.057-4.964a6.975 6.975 0 0 1 4.964-2.057c1.855 0 3.6.715 4.921 2.014z"/>
    </g>
</svg>
