<svg xmlns="http://www.w3.org/2000/svg" width="34" height="43" viewBox="0 0 34 43">
    <g fill="none" fill-rule="evenodd">
        <path fill="#FEFEFE" d="M16.993 42.78c-.618 0-1.192-.273-1.536-.732L3.398 26.267C1.176 23.367 0 19.967 0 16.434 0 7.372 7.611 0 16.967 0c9.355 0 16.965 7.372 16.965 16.434 0 3.534-1.174 6.934-3.398 9.834L18.431 42.107l-.275.278-.059.043c-.31.23-.69.353-1.104.353"/>
        <path fill="#457287" d="M15.725 22.466c-3.373-.71-5.588-3.903-4.878-7.273.71-3.37 3.902-5.588 7.272-4.878 2.483.532 4.436 2.395 4.878 4.878.62 3.372-1.596 6.653-4.878 7.273a5.438 5.438 0 0 1-2.394 0M16.966 1C8.184 1 1 7.92 1 16.434c0 3.371 1.151 6.564 3.193 9.225l12.063 15.788c.265.355.885.445 1.241.18l.178-.18L29.74 25.66c2.04-2.66 3.192-5.854 3.192-9.225C32.932 7.92 25.748 1 16.966 1"/>
    </g>
</svg>
