<svg xmlns="http://www.w3.org/2000/svg" width="34" height="43" viewBox="0 0 34 43">
    <g fill="none" fill-rule="evenodd">
        <path fill="#FEFEFE" d="M16.994 42.78c-.619 0-1.192-.273-1.537-.732L3.399 26.267c-2.222-2.9-3.397-6.3-3.397-9.833C0 7.372 7.61 0 16.967 0c9.355 0 16.964 7.372 16.964 16.434 0 3.534-1.174 6.934-3.398 9.834L18.433 42.107l-.275.278-.06.043c-.31.23-.69.353-1.104.353"/>
        <path fill="#6D8538" d="M16.967 1C8.185 1 1 7.919 1 16.434c0 3.371 1.153 6.565 3.194 9.226l12.062 15.788c.267.354.887.444 1.243.178l.178-.178L29.74 25.66c2.041-2.661 3.194-5.855 3.194-9.226C32.933 7.919 25.748 1 16.967 1"/>
        <path fill="#FEFEFE" d="M26.134 16.551a9.168 9.168 0 1 1-18.335 0 9.168 9.168 0 0 1 18.335 0"/>
        <path fill="#6D8538" d="M19.792 13.963l2.78.4a.961.961 0 0 1 .533 1.639l-2.007 1.96a.964.964 0 0 0-.276.853l.478 2.766a.96.96 0 0 1-1.393 1.014l-2.486-1.303a.96.96 0 0 0-.895 0l-2.483 1.31a.961.961 0 0 1-1.396-1.011l.472-2.768a.962.962 0 0 0-.278-.85l-2.012-1.957a.96.96 0 0 1 .53-1.64l2.78-.406a.96.96 0 0 0 .721-.526l1.24-2.52a.961.961 0 0 1 1.723-.002l1.245 2.517c.14.283.412.479.724.524"/>
    </g>
</svg>
