<svg xmlns="http://www.w3.org/2000/svg" xmlns:xlink="http://www.w3.org/1999/xlink" width="34" height="43" viewBox="0 0 34 43">
    <defs>
        <path id="a" d="M0 .22h33.932V43H0z"/>
    </defs>
    <g fill="none" fill-rule="evenodd">
        <g transform="translate(0 -.22)">
            <mask id="b" fill="#fff">
                <use xlink:href="#a"/>
            </mask>
            <path fill="#FEFEFE" d="M16.993 43c-.618 0-1.192-.274-1.536-.733L3.398 26.487C1.176 23.586 0 20.186 0 16.652 0 7.591 7.611.22 16.967.22c9.355 0 16.965 7.372 16.965 16.434 0 3.534-1.174 6.934-3.398 9.834l-12.103 15.84-.275.277-.059.043c-.31.231-.69.353-1.104.353" mask="url(#b)"/>
        </g>
        <path fill="#58585B" d="M16.967 1C8.185 1 1 7.918 1 16.434 1 19.805 2.153 23 4.194 25.66l12.063 15.788c.266.354.886.444 1.242.178l.178-.178L29.74 25.66c2.04-2.66 3.193-5.855 3.193-9.226C32.933 7.918 25.748 1 16.967 1"/>
        <path fill="#FEFEFE" d="M23.324 10.194a8.933 8.933 0 0 0-6.358-2.634 8.935 8.935 0 0 0-6.358 2.634 8.933 8.933 0 0 0-2.634 6.358c0 2.402.936 4.659 2.634 6.358a8.933 8.933 0 0 0 6.358 2.634 8.935 8.935 0 0 0 6.358-2.634 8.933 8.933 0 0 0 2.634-6.358 8.935 8.935 0 0 0-2.634-6.358m-1.437 1.35L11.96 21.47a6.97 6.97 0 0 1-2.014-4.92c0-1.875.731-3.638 2.057-4.963a6.971 6.971 0 0 1 4.964-2.057c1.855 0 3.6.715 4.921 2.013"/>
    </g>
</svg>
