<svg xmlns="http://www.w3.org/2000/svg" width="21" height="21" viewBox="0 0 21 21">
    <path fill="#FFF" fill-rule="evenodd" d="M20.634 18.93l-6.33-6.33c.974-1.279 1.522-2.922 1.522-4.688A7.896 7.896 0 0 0 7.914 0 7.898 7.898 0 0 0 0 7.914a7.896 7.896 0 0 0 7.912 7.912 7.852 7.852 0 0 0 4.688-1.521l6.33 6.33c.243.244.548.366.853.366.305 0 .608-.122.852-.366a1.178 1.178 0 0 0 0-1.705zm-12.72-5.538a5.455 5.455 0 0 1-5.478-5.478 5.455 5.455 0 0 1 5.478-5.478 5.455 5.455 0 0 1 5.478 5.478 5.456 5.456 0 0 1-5.478 5.478z"/>
</svg>
